<svg width="78" height="22" fill="none" xmlns="http://www.w3.org/2000/svg"><g clip-path="url(#clip0)" fill-rule="evenodd" clip-rule="evenodd" fill="#F6F3F0"><path d="M20.96 0v.01c-.009 0-3.038-.01-3.845 2.882-.74 2.651-2.827 9.972-2.885 10.174h-.577S11.52 5.582 10.77 2.882C9.96-.01 6.923 0 6.923 0H0v22h6.923V8.934H7.5L11.538 22h4.808l4.038-13.056h.577V22h6.923V0H20.96zm25.288 0s-2.028.183-2.98 2.306l-4.904 10.76h-.577V0h-6.923v22h6.539s2.124-.192 3.076-2.306l4.808-10.76h.577V22h6.923V0h-6.539zm9.615 9.991v12.01h6.923v-7.014h7.5a7.49 7.49 0 007.067-4.996h-21.49zM70.286 0H54.893c.769 4.189 3.913 7.551 7.98 8.646.923.25 1.894.385 2.894.385h11.865c.106-.5.154-1.01.154-1.538A7.494 7.494 0 0070.286 0z"/></g><defs><clipPath id="clip0"><path fill="#fff" d="M0 0h77.786v22H0z"/></clipPath></defs></svg>